<svg xmlns="http://www.w3.org/2000/svg" viewBox="0 0 512 512" class="logo__icon"><path d="M327.4 457.9c1.6-38.2-2-61.9-7.2-84.6-5.2-22.7 2.2-39.4 13.3-51.6 11.1-12.1 23.4-22.1 46.6-19.5 46.8 5.4 69.6 2.4 97.1-.7 13.8-1.6 24.8-2.2 33.9-1.7V175.7c0-8.3-6.7-15-15-15H350.3V15c0-8.3-6.7-15-15-15H174.7c-8.3 0-15 6.7-15 15v145.7H14c-8.3 0-15 6.7-15 15v160.7c0 8.3 6.7 15 15 15h145.7V497c0 8.3 6.7 15 15 15h158.4c-5.5-13.4-6.7-30.4-5.7-54.1zM393 195c3.8-4.4 38.1-25 72.9 5.8 26.7 23.6 26.3 49.2 10.2 67.3-16 18.2-41.6 22-68.3-1.6-26.8-23.6-30.9-53.3-14.8-71.5zm-114.1-30.8c4.7-3.1 44.9-10 68 24.9 17.7 26.9 16 59.2-3.8 72.3-19.9 13.1-50.3 1.9-68-24.9-17.7-26.9-16-59.2 3.8-72.3zm-87.6 84.6c15.5-17 47.2-13.5 70.7 8 23.6 21.4 30.1 52.6 14.6 69.7s-47.2 13.5-70.7-8-30.1-52.7-14.6-69.7zm95.2 195.5c-14.7 18.6-47.1 17.6-72.4-2.3-25.2-19.9-33.8-51.2-19-69.9 14.7-18.6 47.1-17.6 72.4 2.3 25.2 20 33.7 51.3 19 69.9z" fill="#3b559a"/></svg>