<?xml version="1.0" standalone="no"?>
<!DOCTYPE svg PUBLIC "-//W3C//DTD SVG 20010904//EN"
 "http://www.w3.org/TR/2001/REC-SVG-20010904/DTD/svg10.dtd">
<svg version="1.0" xmlns="http://www.w3.org/2000/svg"
 width="700.000000pt" height="700.000000pt" viewBox="0 0 700.000000 700.000000"
 preserveAspectRatio="xMidYMid meet">
<metadata>
Created by potrace 1.11, written by Peter Selinger 2001-2013
</metadata>
<g transform="translate(0.000000,700.000000) scale(0.100000,-0.100000)"
fill="#000000" stroke="none">
<path d="M2305 6981 c-22 -10 -51 -31 -65 -47 -60 -67 -57 -7 -56 -1107 1
-663 -2 -1011 -9 -1015 -5 -4 -462 -7 -1015 -8 -1131 -1 -1056 4 -1125 -77
l-35 -41 0 -1180 c0 -1145 1 -1182 19 -1212 27 -44 79 -81 126 -91 22 -5 490
-8 1040 -8 l1000 0 -1 -1000 c-1 -659 2 -1015 9 -1044 13 -57 77 -125 132
-140 28 -8 370 -11 1133 -11 600 0 1092 2 1092 3 0 2 -8 30 -19 63 -44 140
-56 259 -54 544 3 522 3 560 -11 740 -3 41 -9 93 -12 115 -3 22 -7 51 -9 65
-2 14 -8 57 -15 95 -6 39 -13 86 -16 105 -3 19 -7 42 -10 50 -3 8 -12 47 -20
85 -71 330 -6 556 230 790 50 50 118 107 152 127 58 34 174 83 174 73 0 -2 11
0 25 5 45 17 252 14 359 -6 17 -3 121 -11 251 -19 66 -4 425 -5 495 -1 51 3
81 6 260 22 35 3 72 8 83 9 10 2 53 7 95 11 42 3 79 8 82 9 9 5 237 18 321 18
l77 0 -2 876 c-1 814 -2 878 -18 908 -27 48 -78 92 -124 106 -32 9 -281 12
-1048 12 l-1006 -1 -2 1026 c-3 976 -4 1027 -22 1059 -24 44 -70 83 -115 98
-27 8 -331 12 -1171 12 -1084 1 -1137 0 -1175 -18z m1910 -2205 c193 -41 372
-155 488 -309 79 -105 144 -235 172 -347 9 -36 20 -80 25 -99 5 -19 8 -86 6
-150 -3 -92 -9 -131 -29 -189 -141 -406 -620 -443 -983 -76 -249 251 -356 610
-267 894 43 139 152 261 248 276 22 3 42 8 44 10 6 6 261 -3 296 -10z m1679
-300 c98 -10 208 -44 294 -92 216 -120 424 -369 459 -551 10 -46 10 -206 0
-248 -3 -16 -25 -68 -48 -115 -73 -147 -215 -269 -374 -321 -61 -20 -228 -17
-300 5 -68 20 -207 87 -225 107 -3 3 -26 19 -51 37 -62 42 -183 163 -242 241
-58 78 -120 203 -143 291 -48 181 0 392 113 505 65 65 235 131 368 142 33 3
62 7 63 9 2 1 9 1 15 -1 7 -2 38 -6 71 -9z m-2788 -741 c23 -3 78 -19 123 -35
425 -150 728 -592 654 -954 -19 -92 -54 -158 -117 -222 -258 -258 -778 -130
-1083 267 -109 142 -176 318 -177 469 -1 119 4 149 41 230 87 192 294 282 559
245z m168 -1666 c190 -48 370 -156 509 -304 60 -64 144 -197 177 -279 29 -74
34 -93 49 -186 39 -247 -108 -474 -349 -536 -419 -107 -954 239 -1070 692
-109 424 231 729 684 613z"/>
</g>
</svg>
